<svg data-v-fde0c5aa="" xmlns="http://www.w3.org/2000/svg" viewBox="0 0 300 300" class="iconLeft"><!----><defs data-v-fde0c5aa=""><!----></defs><rect data-v-fde0c5aa="" fill="transparent" x="0" y="0" width="300px" height="300px" class="logo-background-square"></rect><defs data-v-fde0c5aa=""><!----></defs><g data-v-fde0c5aa="" id="056d95c0-f4e8-4131-8500-3ecc43f23cbf" fill="#000000" transform="matrix(2.716713706005318,0,0,2.716713706005318,102.37627038408455,122.303104596351)"><path d="M-0.07 14.81L-0.07 14.81Q-0.07 14.55 0.70 12.83Q1.47 11.12 2.48 8.90Q3.50 6.68 3.86 5.73L3.86 5.73L4.17 4.93Q3.95 4.59 3.68 4.33L3.68 4.33Q4.12 4.16 4.51 4.16L4.51 4.16Q5.39 4.16 5.88 5.28L5.88 5.28Q6.19 5.99 6.71 8.47L6.71 8.47Q6.72 8.50 6.75 8.65Q6.78 8.81 7.04 10.07Q7.29 11.34 7.39 11.75Q7.49 12.17 7.73 13.02L7.73 13.02Q8.11 14.46 8.68 15.26L8.68 15.26Q8.02 15.65 7.59 15.65Q7.17 15.65 6.98 15.39Q6.79 15.13 6.63 14.60Q6.47 14.06 5.95 11.59L5.95 11.59Q5.64 12.07 4.72 12.10L4.72 12.10L2.23 12.19Q1.43 14.35 1.06 15.89L1.06 15.89Q-0.07 15.41-0.07 14.81ZM4.66 6.17L4.66 6.17Q3.05 10.00 2.60 11.14L2.60 11.14L5.85 11.14Q5.19 7.94 4.66 6.17ZM11.93 10.88Q12.43 9.06 13.14 8.20Q13.85 7.34 14.45 7.34Q15.06 7.34 15.37 7.79Q15.68 8.25 15.68 8.95Q15.68 9.65 15.32 10.16Q14.95 10.67 14.25 10.67L14.25 10.67Q14.03 10.67 13.90 10.64L13.90 10.64Q14.38 9.95 14.38 9.24L14.38 9.24Q14.38 8.74 13.97 8.74L13.97 8.74Q13.65 8.74 13.29 9.11Q12.92 9.49 12.59 10.16Q12.25 10.84 12.03 11.91Q11.80 12.99 11.80 14.24L11.80 14.24Q11.80 14.38 11.87 15.43L11.87 15.43Q11.51 15.46 11.45 15.46L11.45 15.46Q10.22 15.46 10.22 14.25L10.22 14.25Q10.22 13.97 10.51 12.10Q10.81 10.22 10.81 9.11Q10.81 7.99 10.57 7.06L10.57 7.06Q11.40 7.38 11.72 7.97Q12.05 8.57 12.05 9.36Q12.05 10.15 11.93 10.88L11.93 10.88ZM21.06 7.76L21.06 7.76Q21.06 8.34 20.83 8.57Q20.61 8.79 20.17 8.79L20.17 8.79L19.17 8.79Q19.11 9.16 18.87 10.53L18.87 10.53Q18.40 13.13 18.40 14.46Q18.40 15.79 18.59 16.23L18.59 16.23Q17.79 15.93 17.46 15.34Q17.12 14.74 17.12 13.89Q17.12 13.03 17.23 12.27Q17.33 11.51 17.53 10.49Q17.72 9.46 17.81 8.85L17.81 8.85Q17.01 8.96 16.24 9.30L16.24 9.30Q16.21 9.07 16.21 8.89L16.21 8.89Q16.21 8.22 16.66 7.99Q17.11 7.76 17.95 7.76L17.95 7.76Q18.05 6.72 18.05 6.21Q18.05 5.70 18.04 5.39Q18.03 5.08 18.03 4.93L18.03 4.93Q18.68 5.03 19.03 5.50Q19.38 5.96 19.38 6.78L19.38 6.78Q19.38 7.20 19.31 7.80L19.31 7.80Q20.52 7.80 21.03 7.39L21.03 7.39Q21.06 7.59 21.06 7.76ZM23.77 15.64Q22.97 15.36 22.66 14.78Q22.34 14.20 22.34 13.37Q22.34 12.54 22.57 11.00Q22.79 9.46 22.79 8.61Q22.79 7.76 22.71 7.29L22.71 7.29Q22.96 7.27 23.11 7.27L23.11 7.27Q23.74 7.27 24.02 7.55Q24.30 7.83 24.30 8.47L24.30 8.47Q24.30 8.68 23.96 10.68Q23.62 12.67 23.61 13.96Q23.60 15.26 23.77 15.64L23.77 15.64ZM23.98 5.88L23.98 5.88Q22.81 5.88 22.81 5.08L22.81 5.08Q22.81 4.80 23.02 4.30L23.02 4.30Q23.32 4.24 23.55 4.24L23.55 4.24Q24.72 4.24 24.72 5.04L24.72 5.04Q24.72 5.32 24.51 5.82L24.51 5.82Q24.21 5.88 23.98 5.88ZM28.92 8.73Q28.38 9.38 28.11 10.33Q27.83 11.27 27.83 12.35Q27.83 13.43 28.20 14.08Q28.56 14.74 29.17 14.74Q29.78 14.74 30.37 14.38Q30.95 14.01 31.36 13.37L31.36 13.37Q31.88 13.44 31.88 13.75L31.88 13.75Q31.50 14.45 30.93 14.90Q30.37 15.34 29.88 15.49Q29.39 15.64 28.88 15.64L28.88 15.64Q27.80 15.64 27.06 14.79Q26.32 13.94 26.32 12.33L26.32 12.33Q26.32 10.29 27.43 8.82Q28.53 7.35 30.37 7.35L30.37 7.35Q31.37 7.35 31.89 7.88Q32.41 8.40 32.41 9.09Q32.41 9.79 32.02 10.28Q31.64 10.77 31.04 10.77L31.04 10.77Q30.66 10.77 30.39 10.64L30.39 10.64Q30.62 10.39 30.78 9.93Q30.94 9.48 30.94 9.04L30.94 9.04Q30.94 8.08 30.14 8.08L30.14 8.08Q29.47 8.08 28.92 8.73ZM39.20 7.32L39.20 7.32Q40.40 7.32 40.40 8.57L40.40 8.57Q40.40 8.79 40.14 10.54Q39.87 12.28 39.87 13.52Q39.87 14.77 40.14 15.72L40.14 15.72Q39.28 15.39 38.95 14.77Q38.63 14.15 38.63 13.24L38.63 13.24Q38.63 12.89 38.78 11.66L38.78 11.66Q38.36 13.26 37.48 14.34Q36.60 15.43 35.84 15.43L35.84 15.43Q34.24 15.43 34.24 13.10L34.24 13.10Q34.24 12.33 34.48 10.96Q34.71 9.58 34.71 8.86Q34.71 8.15 34.51 7.42L34.51 7.42Q35.41 7.42 35.85 7.73Q36.30 8.04 36.30 8.92L36.30 8.92Q36.30 9.39 36.01 10.88Q35.71 12.36 35.71 13.08L35.71 13.08Q35.71 14.11 36.36 14.11L36.36 14.11Q36.89 14.11 37.47 13.28Q38.05 12.45 38.44 11.12Q38.84 9.79 38.84 8.48L38.84 8.48Q38.84 7.90 38.75 7.35L38.75 7.35Q39.06 7.32 39.20 7.32ZM49.13 9.34L49.13 9.34Q49.13 9.98 48.85 11.61Q48.58 13.24 48.58 13.99Q48.58 14.73 48.76 15.06Q48.94 15.39 49.38 15.62L49.38 15.62Q49.20 15.64 48.86 15.64L48.86 15.64Q47.91 15.64 47.51 15.28Q47.11 14.92 47.11 14L47.11 14Q47.11 13.48 47.39 11.91Q47.67 10.33 47.67 9.59L47.67 9.59Q47.67 8.67 47.11 8.67L47.11 8.67Q46.21 8.67 45.26 10.25Q44.30 11.83 44.30 14.06L44.30 14.06Q44.30 14.94 44.38 15.43L44.38 15.43Q44.02 15.46 43.95 15.46L43.95 15.46Q42.71 15.46 42.71 14.25L42.71 14.25Q42.71 13.97 43.01 12.10Q43.30 10.22 43.30 9.11Q43.30 7.99 43.06 7.06L43.06 7.06Q43.89 7.38 44.22 7.97Q44.55 8.57 44.55 9.33Q44.55 10.09 44.38 11.10L44.38 11.10Q44.84 9.52 45.83 8.44Q46.82 7.35 47.67 7.35L47.67 7.35Q49.13 7.35 49.13 9.34ZM56.64 10.83Q56.64 9.46 56.30 8.87Q55.96 8.27 55.32 8.27Q54.68 8.27 54.04 8.90Q53.40 9.52 53.02 10.44Q52.65 11.35 52.65 12.34Q52.65 13.33 53.03 14.05Q53.41 14.77 54.18 14.77L54.18 14.77Q55.27 14.77 55.96 13.48Q56.64 12.19 56.64 10.83ZM52.58 10.29Q53.12 8.78 54.02 8.09Q54.92 7.39 55.85 7.39Q56.78 7.39 57.40 8.21Q58.02 9.03 58.02 10.43L58.02 10.43Q58.02 11.97 57.43 13.29L57.43 13.29Q56.77 14.74 55.52 15.32L55.52 15.32Q54.85 15.64 54.04 15.64L54.04 15.64Q52.91 15.64 52.05 14.69Q51.20 13.75 51.20 11.99Q51.20 10.23 51.95 8.95Q52.71 7.66 54.01 7.15L54.01 7.15Q54.29 7.15 54.29 7.43L54.29 7.43Q52.91 8.34 52.58 10.29L52.58 10.29Z"></path></g><defs data-v-fde0c5aa=""><linearGradient data-v-fde0c5aa="" gradientTransform="rotate(25)" id="fe9215bf-a931-41f5-a646-0e828965400f" x1="0%" y1="0%" x2="100%" y2="0%"><stop data-v-fde0c5aa="" offset="0%" stop-color="#050922" stop-opacity="1"></stop><stop data-v-fde0c5aa="" offset="100%" stop-color="#6EE6C7" stop-opacity="1"></stop></linearGradient></defs><g data-v-fde0c5aa="" id="1df9e910-da70-42bd-ae56-c46738e1b74a" stroke="none" fill="url(#fe9215bf-a931-41f5-a646-0e828965400f)" transform="matrix(1.5370656376129201,0,0,1.5370656376129201,40,125.40694979819328)"><circle cx="16" cy="16.021" r="8.066"></circle><path d="M32 0H0v32h32V0zM16 26.086c-5.551 0-10.066-4.516-10.066-10.065 0-5.55 4.516-10.066 10.066-10.066 5.55 0 10.065 4.516 10.065 10.066.001 5.55-4.515 10.065-10.065 10.065z"></path></g><!----></svg>